<svg width="22" height="22" viewBox="0 0 22 22" fill="none" xmlns="http://www.w3.org/2000/svg">
<path d="M10.8 21.6C16.7647 21.6 21.6 16.7647 21.6 10.8C21.6 4.83532 16.7647 0 10.8 0C4.83532 0 0 4.83532 0 10.8C0 16.7647 4.83532 21.6 10.8 21.6Z" fill="#9B101C"/>
<path d="M7.04347 15.4957C7.78562 14.2948 9.34636 13.5541 10.9977 13.6156C12.5139 13.6722 13.8814 14.3967 14.5565 15.4957" stroke="black" stroke-width="0.93913" stroke-miterlimit="10" stroke-linecap="round" stroke-linejoin="round"/>
<path d="M7.98261 9.35618C7.98261 10.1341 7.35114 10.7649 6.57392 10.7649C5.79665 10.7649 5.16522 10.1341 5.16522 9.35618C5.16522 8.5789 5.79665 7.94748 6.57392 7.94748C7.35114 7.94748 7.98261 8.57895 7.98261 9.35618Z" fill="black"/>
<path d="M16.4348 9.35618C16.4348 10.1341 15.8034 10.7649 15.0261 10.7649C14.2488 10.7649 13.6174 10.1341 13.6174 9.35618C13.6174 8.5789 14.2488 7.94748 15.0261 7.94748C15.8034 7.94748 16.4348 8.57895 16.4348 9.35618Z" fill="black"/>
<path d="M4.69565 5.16522L7.9826 7.04348" stroke="black" stroke-width="0.93913" stroke-miterlimit="10" stroke-linecap="round" stroke-linejoin="round"/>
<path d="M16.9043 5.16522L13.6174 7.04348" stroke="black" stroke-width="0.93913" stroke-miterlimit="10" stroke-linecap="round" stroke-linejoin="round"/>
</svg>
