<svg width="36" height="36" viewBox="0 0 36 36" fill="none" xmlns="http://www.w3.org/2000/svg">
<circle cx="18" cy="18" r="18" fill="#CBDCE3"/>
<path d="M12.6 16.5C12.6 17.4 11.7 18 11.1 18C10.2 18 9.6 17.4 9.6 16.5V13.8C9.6 12.9 10.2 12.3 11.1 12.3C12 12.3 12.6 12.9 12.6 13.8V16.5Z" fill="#272636"/>
<path d="M26.4 16.5C26.4 17.4 25.8 18 24.9 18C24 18 23.4 17.4 23.4 16.5V13.8C23.4 12.9 24 12.3 24.9 12.3C25.8 12.3 26.4 12.9 26.4 13.8V16.5Z" fill="#272636"/>
<path d="M12 26.4C11.7 26.4 11.4 26.4 11.1 26.1C10.5 25.5 10.5 24.6 11.1 24C12.6 22.2 15.3 21 18 21C20.7 21 23.4 22.2 25.2 24C25.8 24.6 25.8 25.5 25.2 26.1C24.6 26.7 23.7 26.7 23.1 26.1C20.4 23.1 15.6 23.4 12.9 26.1C12.6 26.4 12.3 26.4 12 26.4Z" fill="#272636"/>
</svg>
