<svg width="22" height="22" viewBox="0 0 22 22" fill="none" xmlns="http://www.w3.org/2000/svg">
<circle cx="10.8" cy="10.8" r="10.8" fill="#FCDB64"/>
<path d="M9.09756 9.28546C9.27 9.46762 9.61524 9.13282 9.549 8.94778C8.87976 7.10782 7.8714 6.18658 6.86304 6.18658C5.85504 6.18658 4.84668 7.10782 4.1778 8.94778C4.11156 9.13282 4.45644 9.46726 4.62924 9.28546C5.27796 8.60146 6.05412 8.32858 6.8634 8.32858C7.67304 8.32858 8.44956 8.60146 9.09756 9.28546Z" fill="black"/>
<path d="M14.7362 6.18695C13.7279 6.18695 12.7195 7.10819 12.0503 8.94815C11.984 9.13319 12.3293 9.46763 12.5017 9.28583C13.1508 8.60183 13.9262 8.32895 14.7362 8.32895C15.5462 8.32895 16.3217 8.60183 16.9708 9.28583C17.1432 9.46799 17.4884 9.13319 17.4222 8.94815C16.7526 7.10783 15.7442 6.18695 14.7362 6.18695Z" fill="black"/>
<path d="M16.2641 12.2342C15.0174 11.9959 13.1746 11.7504 10.8 11.7504H10.7993C8.42544 11.7504 6.5826 11.9959 5.33592 12.2342C4.84992 12.3271 4.68 12.6893 4.68 12.9784C4.68 15.5959 6.70032 18.2308 10.7996 18.2308C14.8997 18.2308 16.92 15.5963 16.92 12.9784C16.92 12.6893 16.7497 12.3271 16.2641 12.2342ZM15.831 13.5972C15.8112 13.7567 15.7817 13.9482 15.7352 14.1563C15.6845 14.387 15.6409 14.4932 15.2795 14.45C14.5883 14.3676 7.01136 14.3676 6.32016 14.45C5.95872 14.4929 5.91588 14.3867 5.8644 14.1563C5.81868 13.9482 5.78844 13.757 5.769 13.5972C5.7366 13.3301 5.76504 13.1407 6.23088 13.0622C7.02108 12.9301 8.69256 12.6979 10.7996 12.6979C12.9067 12.6979 14.5782 12.9301 15.3684 13.0622C15.8342 13.1407 15.863 13.3297 15.831 13.5972Z" fill="black"/>
</svg>
