<svg width="47" height="48" viewBox="0 0 47 48" fill="none" xmlns="http://www.w3.org/2000/svg">
<circle cx="23.5" cy="24.5" r="23.5" fill="#E1512B"/>
<path d="M1.81984 11.5663C2.24013 10.2652 5.01738 8.35367 7.34635 7.09596C8.49586 9.48852 9.62547 12.6756 9.20422 13.9797C8.54273 16.0274 6.34832 17.1524 4.31247 16.487C2.27661 15.8216 1.15845 13.6138 1.81984 11.5663Z" fill="black"/>
<path d="M13.2511 20.839C13.2511 21.1704 13.3159 21.4986 13.442 21.8048C13.568 22.111 13.7528 22.3892 13.9858 22.6236C14.2188 22.8579 14.4954 23.0439 14.7998 23.1707C15.1042 23.2975 15.4304 23.3628 15.7599 23.3628C16.0894 23.3628 16.4157 23.2975 16.7201 23.1707C17.0245 23.0439 17.301 22.8579 17.534 22.6236C17.767 22.3892 17.9518 22.111 18.0778 21.8048C18.2039 21.4986 18.2687 21.1704 18.2687 20.839C18.2687 20.5076 18.2039 20.1794 18.0778 19.8732C17.9518 19.567 17.767 19.2888 17.534 19.0544C17.301 18.82 17.0245 18.6341 16.7201 18.5073C16.4157 18.3804 16.0894 18.3152 15.7599 18.3152C15.4304 18.3152 15.1042 18.3804 14.7998 18.5073C14.4954 18.6341 14.2188 18.82 13.9858 19.0544C13.7528 19.2888 13.568 19.567 13.442 19.8732C13.3159 20.1794 13.2511 20.5076 13.2511 20.839Z" fill="black"/>
<path d="M28.7739 20.839C28.7739 21.1704 28.8388 21.4986 28.9648 21.8048C29.0909 22.111 29.2757 22.3892 29.5086 22.6236C29.7416 22.8579 30.0182 23.0439 30.3226 23.1707C30.627 23.2975 30.9532 23.3628 31.2827 23.3628C31.6122 23.3628 31.9385 23.2975 32.2429 23.1707C32.5473 23.0439 32.8239 22.8579 33.0568 22.6236C33.2898 22.3892 33.4746 22.111 33.6006 21.8048C33.7267 21.4986 33.7916 21.1704 33.7915 20.839C33.7916 20.5076 33.7267 20.1794 33.6006 19.8732C33.4746 19.567 33.2898 19.2888 33.0568 19.0544C32.8239 18.82 32.5473 18.6341 32.2429 18.5073C31.9385 18.3804 31.6122 18.3152 31.2827 18.3152C30.9532 18.3152 30.627 18.3804 30.3226 18.5073C30.0182 18.6341 29.7416 18.82 29.5086 19.0544C29.2757 19.2888 29.0909 19.567 28.9648 19.8732C28.8388 20.1794 28.7739 20.5076 28.7739 20.839Z" fill="black"/>
<path d="M36.2561 16.8522L28.3114 13.3912L29.3083 11.0759L37.253 14.5369L36.2561 16.8522ZM18.7313 13.3906L10.7865 16.8515L9.78961 14.5362L17.7343 11.075L18.7313 13.3906Z" fill="black"/>
<path d="M29.907 33.958L31.7588 32.2559C30.7124 31.1059 29.4399 30.1872 28.0219 29.5581C26.6038 28.9289 25.0713 28.6031 23.5215 28.6012C21.9716 28.6031 20.439 28.9289 19.021 29.558C17.6029 30.1872 16.3303 31.1059 15.2839 32.2559L17.136 33.9583C17.9471 33.0668 18.9335 32.3545 20.0328 31.8667C21.132 31.3789 22.32 31.1263 23.5215 31.1247C24.7229 31.1263 25.9109 31.379 27.0102 31.8667C28.1094 32.3545 29.0959 33.0668 29.907 33.9583V33.958Z" fill="black"/>
</svg>
