<svg width="48" height="48" viewBox="0 0 48 48" fill="none" xmlns="http://www.w3.org/2000/svg">
<g clip-path="url(#clip0_5_265)">
<circle cx="24" cy="24" r="24" fill="#FA9153"/>
<path d="M24 28.068C29.436 28.068 34.605 26.625 39 24.087C38.316 32.451 31.821 39 24 39C16.179 39 9.684 32.442 9 24.081C13.5646 26.7006 18.7371 28.0754 24 28.068ZM12 16.5C12 14.016 13.344 12 15 12C16.656 12 18 14.016 18 16.5C18 18.984 16.656 21 15 21C13.344 21 12 18.984 12 16.5ZM30 16.5C30 14.016 31.344 12 33 12C34.656 12 36 14.016 36 16.5C36 18.984 34.656 21 33 21C31.344 21 30 18.984 30 16.5Z" fill="black"/>
</g>
<defs>
<clipPath id="clip0_5_265">
<rect width="48" height="48" fill="white"/>
</clipPath>
</defs>
</svg>
