<svg width="38" height="38" viewBox="0 0 38 38" fill="none" xmlns="http://www.w3.org/2000/svg">
<circle cx="18.995" cy="18.995" r="18.345" fill="#658EA5"/>
<path d="M11.0348 27.3426C12.659 24.4551 15.7188 22.6668 19.0328 22.6668C22.3264 22.6668 25.3164 24.4182 26.9529 27.2072C27.2113 27.642 27.0719 28.2039 26.6371 28.4664C26.2023 28.7248 25.6404 28.5854 25.3779 28.1506C25.3738 28.1465 25.3738 28.1424 25.3697 28.1383C24.0531 25.8865 21.6414 24.5043 19.0328 24.5043C16.3791 24.5043 13.9346 25.9317 12.6344 28.2449C12.3842 28.6879 11.8264 28.8438 11.3834 28.5936C10.9445 28.3475 10.7887 27.7856 11.0348 27.3426Z" fill="#2C2C2C"/>
<path d="M29.3975 13.9018C29.8732 13.7295 30.1234 13.2086 29.9553 12.7287C29.783 12.2529 29.2621 12.0027 28.7822 12.1709L22.3633 14.4678C21.8875 14.636 21.6373 15.161 21.8055 15.6408C21.8752 15.8377 22.0105 16.0059 22.191 16.1166L28.1547 19.7875C28.5854 20.0541 29.1514 19.9188 29.418 19.4881C29.6846 19.0574 29.5492 18.4914 29.1186 18.2248L24.7832 15.5588L29.3975 13.9018ZM8.60254 13.9018C8.12676 13.7295 7.87656 13.2086 8.04473 12.7287C8.21699 12.2529 8.73789 12.0027 9.21777 12.1709L15.6367 14.4678C16.1125 14.636 16.3627 15.161 16.1945 15.6408C16.1248 15.8377 15.9895 16.0059 15.809 16.1166L9.84531 19.7875C9.41465 20.0541 8.84863 19.9188 8.58203 19.4881C8.31543 19.0574 8.45078 18.4914 8.88144 18.2248L13.2168 15.5588L8.60254 13.9018Z" fill="#2C2C2C"/>
</svg>
