<?xml version="1.0" standalone="no"?><!DOCTYPE svg PUBLIC "-//W3C//DTD SVG 1.1//EN" "http://www.w3.org/Graphics/SVG/1.1/DTD/svg11.dtd"><svg t="1726211962721" class="icon" viewBox="0 0 1024 1024" version="1.1" xmlns="http://www.w3.org/2000/svg" p-id="6348" xmlns:xlink="http://www.w3.org/1999/xlink" width="48" height="48"><path d="M200.046 32L32 200.046v76.237L276.283 32h-76.237z m207.124 0L32 407.17v76.222L483.392 32H407.17z m207.125 0L32 614.295v76.222L690.517 32h-76.222z m207.109 0L32 821.404v76.237L897.641 32h-76.237zM992 71.244a48.005 48.005 0 0 0-10.501 7.815L71.274 989.255c-0.855 0.855-1.275 1.86-2.04 2.745h75.517L992 144.766z m0 204.394L275.638 992h76.237L992 351.875v-76.237z m0 207.124L482.762 992H559L992 559v-76.238z m0 207.125L689.887 992h76.222L992 766.109v-76.222z" fill="#000000" p-id="6349"></path></svg>