<?xml version="1.0" standalone="no"?><!DOCTYPE svg PUBLIC "-//W3C//DTD SVG 1.1//EN" "http://www.w3.org/Graphics/SVG/1.1/DTD/svg11.dtd"><svg t="1726212043114" class="icon" viewBox="0 0 1024 1024" version="1.1" xmlns="http://www.w3.org/2000/svg" p-id="7629" xmlns:xlink="http://www.w3.org/1999/xlink" width="48" height="48"><path d="M512.005063 1023.999068A512.1261 512.1261 0 0 1 312.699221 40.247954 512.1261 512.1261 0 0 1 711.300779 983.751115a508.724009 508.724009 0 0 1-199.295716 40.247953z m0-962.670299A450.797332 450.797332 0 0 0 336.594862 927.272351 450.799357 450.799357 0 0 0 687.415264 96.726717a447.820502 447.820502 0 0 0-175.410201-35.397948z" fill="#333333" p-id="7630"></path><path d="M331.400597 329.709211m-58.524068 0a58.524068 58.524068 0 1 0 117.048137 0 58.524068 58.524068 0 1 0-117.048137 0Z" fill="#333333" p-id="7631"></path><path d="M691.921009 329.709211m-58.524068 0a58.524068 58.524068 0 1 0 117.048137 0 58.524068 58.524068 0 1 0-117.048137 0Z" fill="#333333" p-id="7632"></path><path d="M512.065814 880.979611a369.086392 369.086392 0 0 1-369.359774-369.359774 32.400868 32.400868 0 0 1 64.801737 0 304.558037 304.558037 0 0 0 609.116075 0 32.400868 32.400868 0 0 1 64.801736 0 369.066141 369.066141 0 0 1-369.359774 369.359774z" fill="#333333" p-id="7633"></path></svg>