<?xml version="1.0" standalone="no"?><!DOCTYPE svg PUBLIC "-//W3C//DTD SVG 1.1//EN" "http://www.w3.org/Graphics/SVG/1.1/DTD/svg11.dtd"><svg t="1726324122440" class="icon" viewBox="0 0 1024 1024" version="1.1" xmlns="http://www.w3.org/2000/svg" p-id="3506" xmlns:xlink="http://www.w3.org/1999/xlink" width="48" height="48"><path d="M390.12 257.01h410.22V357.2H390.12zM390.12 475.61h410.22V575.8H390.12zM390.12 694.21h410.22V794.4H390.12z" fill="#333333" p-id="3507"></path><path d="M277.82 307.62m-50.09 0a50.09 50.09 0 1 0 100.18 0 50.09 50.09 0 1 0-100.18 0Z" fill="#333333" p-id="3508"></path><path d="M277.82 525.71m-50.09 0a50.09 50.09 0 1 0 100.18 0 50.09 50.09 0 1 0-100.18 0Z" fill="#333333" p-id="3509"></path><path d="M277.82 738.94m-50.09 0a50.09 50.09 0 1 0 100.18 0 50.09 50.09 0 1 0-100.18 0Z" fill="#333333" p-id="3510"></path></svg>