<?xml version="1.0" standalone="no"?><!DOCTYPE svg PUBLIC "-//W3C//DTD SVG 1.1//EN" "http://www.w3.org/Graphics/SVG/1.1/DTD/svg11.dtd"><svg t="1727522138014" class="icon" viewBox="0 0 1024 1024" version="1.1" xmlns="http://www.w3.org/2000/svg" p-id="5195" xmlns:xlink="http://www.w3.org/1999/xlink" width="48" height="48"><path d="M512 42.666667c40.106667 0 79.573333 5.034667 117.717333 14.890666a42.666667 42.666667 0 0 1-21.333333 82.624A384.746667 384.746667 0 0 0 512 128C299.925333 128 128 299.925333 128 512s171.925333 384 384 384 384-171.925333 384-384c0-25.92-2.56-51.498667-7.594667-76.458667a42.666667 42.666667 0 1 1 83.626667-16.896c6.186667 30.506667 9.301333 61.76 9.301333 93.354667 0 259.2-210.133333 469.333333-469.333333 469.333333S42.666667 771.2 42.666667 512 252.8 42.666667 512 42.666667z m142.229333 495.296a42.666667 42.666667 0 0 1 42.666667 42.666666c0 111.381333-82.410667 184.362667-184.896 184.362667s-184.896-72.96-184.896-184.362667a42.666667 42.666667 0 1 1 85.333333 0c0 61.802667 42.048 99.029333 99.562667 99.029334 57.514667 0 99.562667-37.226667 99.562667-99.029334a42.666667 42.666667 0 0 1 42.666666-42.666666zM370.773333 329.173333a42.666667 42.666667 0 0 1 42.666667 42.666667v32a42.666667 42.666667 0 1 1-85.333333 0v-32a42.666667 42.666667 0 0 1 42.666666-42.666667z m285.44 0a42.666667 42.666667 0 0 1 42.666667 42.666667v32a42.666667 42.666667 0 1 1-85.333333 0v-32a42.666667 42.666667 0 0 1 42.666666-42.666667zM810.666667 74.666667a42.666667 42.666667 0 0 1 42.56 39.466666L853.333333 117.333333v64h64a42.666667 42.666667 0 0 1 3.2 85.226667L917.333333 266.666667h-64v64a42.666667 42.666667 0 0 1-85.226666 3.2L768 330.666667v-64h-64a42.666667 42.666667 0 0 1-3.2-85.226667L704 181.333333h64v-64a42.666667 42.666667 0 0 1 42.666667-42.666666z" fill="#111111" p-id="5196"></path></svg>