<?xml version="1.0" standalone="no"?><!DOCTYPE svg PUBLIC "-//W3C//DTD SVG 1.1//EN" "http://www.w3.org/Graphics/SVG/1.1/DTD/svg11.dtd"><svg t="1727716367059" class="icon" viewBox="0 0 1024 1024" version="1.1" xmlns="http://www.w3.org/2000/svg" p-id="12684" xmlns:xlink="http://www.w3.org/1999/xlink" width="48" height="48"><path d="M933.056 442.432a426.688 426.688 0 1 1-294.4-337.984l-19.904 60.8A362.688 362.688 0 1 0 869.76 452.48l63.232-9.984zM352 362.688a53.312 53.312 0 1 1 0 106.624 53.312 53.312 0 0 1 0-106.624z m320 0a53.312 53.312 0 1 1 0 106.624 53.312 53.312 0 0 1 0-106.624zM607.424 602.368l57.28 28.608a170.688 170.688 0 0 1-305.408 0l57.28-28.608a106.688 106.688 0 0 0 190.848 0z" fill="#000000" p-id="12685"></path><path d="M800 224V128h64v96H960v64h-96V384h-64V288H704v-64h96z" fill="#000000" p-id="12686"></path></svg>