<?xml version="1.0" standalone="no"?><!DOCTYPE svg PUBLIC "-//W3C//DTD SVG 1.1//EN" "http://www.w3.org/Graphics/SVG/1.1/DTD/svg11.dtd"><svg t="1727766266746" class="icon" viewBox="0 0 1024 1024" version="1.1" xmlns="http://www.w3.org/2000/svg" p-id="2005" xmlns:xlink="http://www.w3.org/1999/xlink" width="48" height="48"><path d="M384 550.4c-19.2 0-38.4 6.4-44.8 12.8 0-70.4 57.6-147.2 134.4-192L448 320c-102.4 44.8-192 147.2-192 281.6 0 83.2 51.2 140.8 115.2 140.8 70.4 0 102.4-51.2 102.4-96 0-51.2-32-96-89.6-96zM672 550.4c-19.2 0-38.4 6.4-44.8 12.8 0-70.4 51.2-147.2 134.4-192l-25.6-51.2c-96 44.8-185.6 147.2-185.6 281.6 0 83.2 51.2 140.8 115.2 140.8 70.4 0 102.4-51.2 102.4-96 0-51.2-38.4-96-96-96z" p-id="2006"></path></svg>