<?xml version="1.0" standalone="no"?><!DOCTYPE svg PUBLIC "-//W3C//DTD SVG 1.1//EN" "http://www.w3.org/Graphics/SVG/1.1/DTD/svg11.dtd"><svg t="1726212159053" class="icon" viewBox="0 0 1024 1024" version="1.1" xmlns="http://www.w3.org/2000/svg" p-id="17346" xmlns:xlink="http://www.w3.org/1999/xlink" width="48" height="48"><path d="M981.333333 85.333333a42.666667 42.666667 0 0 0-42.666666-42.666666H85.333333a42.666667 42.666667 0 0 0-42.666666 42.666666v128a42.666667 42.666667 0 0 0 85.333333 0V128h768v85.333333a42.666667 42.666667 0 1 0 85.333333 0V85.333333zM298.666667 938.666667a42.666667 42.666667 0 0 0 42.666666 42.666666h341.333334a42.666667 42.666667 0 1 0 0-85.333333H341.333333a42.666667 42.666667 0 0 0-42.666666 42.666667z" p-id="17347" fill="#000000"></path><path d="M512 981.333333a42.666667 42.666667 0 0 0 42.666667-42.666666V85.333333a42.666667 42.666667 0 1 0-85.333334 0v853.333334a42.666667 42.666667 0 0 0 42.666667 42.666666z" p-id="17348" fill="#000000"></path></svg>